<?xml version="1.0" encoding="iso-8859-1"?>
<!-- Generator: Adobe Illustrator 19.0.0, SVG Export Plug-In . SVG Version: 6.00 Build 0)  -->
<svg xmlns="http://www.w3.org/2000/svg" xmlns:xlink="http://www.w3.org/1999/xlink" version="1.1" id="Capa_1" x="0px" y="0px" viewBox="0 0 480 480" style="enable-background:new 0 0 480 480;" xml:space="preserve" width="512px" height="512px">
<g>
	<g>
		<path d="M384,192.008c-1.44,0-2.848,0.16-4.272,0.208l4.816,15.84C428.464,208.36,464,244.008,464,288.008    c0,44.176-35.824,80-80,80c-44.176,0-80-35.824-80-80c0-33.248,20.496-61.28,49.392-73.312l22.96,75.632l0.112-0.032    c0.992,3.28,3.936,5.712,7.536,5.712c4.416,0,8-3.584,8-8c0-0.816-0.24-1.552-0.464-2.288L338.8,111.992H384    c8.832,0,16,7.168,16,16c0,4.416-1.792,8.416-4.688,11.312c-3.12,3.12-3.12,8.192,0,11.312s8.192,3.12,11.312,0    c5.792-5.792,9.376-13.792,9.376-22.624c0-17.68-14.32-32-32-32h-55.984c-4.416,0-8,3.584-8,8c0,0.8,0.24,1.536,0.464,2.272    l11.456,37.728H188.608l-6.224-20.48l36.096-12.032c3.184-1.04,5.52-3.952,5.52-7.488c0-4.416-3.584-8-8-8h-80    c-4.416,0-8,3.584-8,8c0,3.136,1.856,5.792,4.496,7.104l31.328,15.536c0.912,0.576,2,0.8,3.088,1.008l7.008,23.04L89.536,283.736    l0.128,0.08c-0.784,1.232-1.36,2.624-1.36,4.192c0,4.416,3.584,8,8,8h78.736c-4.08,40.352-37.616,72-79.04,72    c-44.176,0-80-35.824-80-80c0-44.176,35.824-80,80-80c7.2,0,14.048,1.264,20.688,3.04l9.056-14.288    c-9.376-3.056-19.36-4.752-29.744-4.752c-53.024,0-96,42.976-96,96c0,53.024,42.976,96,96,96c50.304,0,91.376-38.752,95.472-88    h10.048c1.6,4.496,4.448,8.336,8.192,11.152l-8.912,28.848H192v15.984h32v-15.984h-6.464l7.456-24.096    c12.816-0.512,23.056-10.976,23.056-23.904c0-4.288-1.216-8.24-3.184-11.728L339.2,167.96l9.552,31.456    C313.312,213.496,288,247.544,288,288.008c0,53.024,42.976,96,96,96s96-42.976,96-96S437.024,192.008,384,192.008z     M201.504,280.008h-90.656l34.336-54.144c12.4,9.76,22,22.816,26.928,38.144h16.8c-5.488-21.072-18.224-38.96-35.072-51.808    l26.224-41.344l29.776,97.904C206.032,271.576,203.12,275.464,201.504,280.008z M224.048,296.008c-4.416,0-8-3.584-8-8    c0-4.416,3.584-8,8-8c4.416,0,8,3.584,8,8C232.048,292.424,228.464,296.008,224.048,296.008z M232.848,265.72    c-2.4-0.944-4.992-1.488-7.696-1.6l-31.68-104.128h131.456L232.848,265.72z" fill="#a0fa9b"/>
	</g>
</g>
<g>
	<g>
		<polygon points="224,208.008 224,224.008 231.408,224.008 228.768,233.112 233.632,248.824 244.224,237.416 248.128,224.008     256,224.008 256,208.008   " fill="#a0fa9b"/>
	</g>
</g>
<g>
</g>
<g>
</g>
<g>
</g>
<g>
</g>
<g>
</g>
<g>
</g>
<g>
</g>
<g>
</g>
<g>
</g>
<g>
</g>
<g>
</g>
<g>
</g>
<g>
</g>
<g>
</g>
<g>
</g>
</svg>
